# xmcd
#
# Track frame offsets: 
#        150
#        9947
#        22180
#        35948
#        44025
#        54983
#        63361
#        77649
#        86109
#        95265
#        106034
#        119057
#        142613
#        157647
#        169110
#
# Disc length: 2380 seconds
#
# Revision: 0
# Processed by: cddbd v1.5.1PL2 Copyright (c) Steve Scherf et al.
# Submitted via: ExactAudioCopy v0.95b3
#
DISCID=b8094a0f
DTITLE=Elvis Presley - The Very Best Of
DYEAR=2006
DGENRE=Rock n' Roll
TTITLE0=Heartbreak Hotel
TTITLE1=Blue Suede Shoes
TTITLE2=I Got A Woman (I Got A Sweetie)
TTITLE3=Long Tall Sally
TTITLE4=Hound Dog
TTITLE5=(There's) Good Rocking Tonite
TTITLE6=Maybelline
TTITLE7=That's Alright Mama
TTITLE8=Blue Moon Of Kentucky
TTITLE9=I Got A Woman (Alternative Version)
TTITLE10=Avondale
TTITLE11=Reservation Blues
TTITLE12=Amazing Grace
TTITLE13=Swing Low Sweet Chariot
TTITLE14=Cotton Eye Joe
EXTD=
EXTT0=
EXTT1=
EXTT2=
EXTT3=
EXTT4=
EXTT5=
EXTT6=
EXTT7=
EXTT8=
EXTT9=
EXTT10=
EXTT11=
EXTT12=
EXTT13=
EXTT14=
PLAYORDER=
